HIERARCHY
ROOT Hips
{
	OFFSET 0.000000 0.000000 0.000000 
	CHANNELS 6 Xposition Yposition Zposition Zrotation Yrotation Xrotation
	JOINT LeftUpLeg
	{
		OFFSET 1.363060 -1.794630 0.839290 
		CHANNELS 3 Zrotation Yrotation Xrotation
		JOINT LeftLeg
		{
			OFFSET 2.448110 -6.726130 0.000000 
			CHANNELS 3 Zrotation Yrotation Xrotation
			JOINT LeftFoot
			{
				OFFSET 2.562200 -7.039590 0.000000 
				CHANNELS 3 Zrotation Yrotation Xrotation
				JOINT LeftToeBase
				{
					OFFSET 0.157640 -0.433110 2.322550 
					CHANNELS 3 Zrotation Yrotation Xrotation
					End Site
					{
						OFFSET 0.000000 0.000000 0.000000 
					}
				}
			}
		}
	}
	JOINT RightUpLeg
	{
		OFFSET -1.305520 -1.794630 0.839290 
		CHANNELS 3 Zrotation Yrotation Xrotation
		JOINT RightLeg
		{
			OFFSET -2.542530 -6.985550 0.000000 
			CHANNELS 3 Zrotation Yrotation Xrotation
			JOINT RightFoot
			{
				OFFSET -2.568260 -7.056230 0.000000 
				CHANNELS 3 Zrotation Yrotation Xrotation
				JOINT RightToeBase
				{
					OFFSET -0.164730 -0.452590 2.363150 
					CHANNELS 3 Zrotation Yrotation Xrotation
					End Site
					{
						OFFSET 0.000000 0.000000 0.000000 
					}
				}
			}
		}
	}
	JOINT Spine
	{
		OFFSET 0.028270 2.035590 -0.193380 
		CHANNELS 3 Zrotation Yrotation Xrotation
		JOINT Spine1
		{
			OFFSET 0.056720 2.048850 -0.042750 
			CHANNELS 3 Zrotation Yrotation Xrotation
			JOINT Neck1
			{
				OFFSET -0.054170 1.746240 0.172020 
				CHANNELS 3 Zrotation Yrotation Xrotation
				JOINT Head
				{
					OFFSET 0.104070 1.761360 -0.123970 
					CHANNELS 3 Zrotation Yrotation Xrotation
					End Site
					{
						OFFSET 0.000000 0.000000 0.000000 
					}
				}
			}
			JOINT LeftArm
			{
				OFFSET 3.362410 1.200890 -0.311210 
				CHANNELS 3 Zrotation Yrotation Xrotation
				JOINT LeftForeArm
				{
					OFFSET 4.983000 -0.000000 -0.000000 
					CHANNELS 3 Zrotation Yrotation Xrotation
					JOINT LeftHand
					{
						OFFSET 3.483560 -0.000000 -0.000000 
						CHANNELS 3 Zrotation Yrotation Xrotation
						JOINT LeftHandIndex1
						{
							OFFSET 0.715260 -0.000000 -0.000000 
							CHANNELS 3 Zrotation Yrotation Xrotation
							End Site
							{
								OFFSET 0.000000 0.000000 0.000000 
							}
						}
					}
				}
			}
			JOINT RightArm
			{
				OFFSET -3.136600 1.374050 -0.404650 
				CHANNELS 3 Zrotation Yrotation Xrotation
				JOINT RightForeArm
				{
					OFFSET -5.241900 -0.000000 -0.000000 
					CHANNELS 3 Zrotation Yrotation Xrotation
					JOINT RightHand
					{
						OFFSET -3.444170 -0.000000 -0.000000 
						CHANNELS 3 Zrotation Yrotation Xrotation
						JOINT RightHandIndex1
						{
							OFFSET -0.622530 -0.000000 -0.000000 
							CHANNELS 3 Zrotation Yrotation Xrotation
							End Site
							{
								OFFSET 0.000000 0.000000 0.000000 
							}
						}
					}
				}
			}
		}
	}
}
MOTION
Frames: 16
Frame Time: 0.041667
27.262870 15.845504 10.788724 -11.972219 1.650272 -9.413381 -19.448894 -26.237475 -29.660406 9.458984 7.834450 34.007902 -3.067574 -19.165881 -34.310678 1.354600 -7.367700 -20.809300 48.512245 -12.777361 24.158694 -4.105384 -7.690209 18.906317 -1.077205 7.720250 -32.724610 -0.004500 -0.435300 1.196100 19.353625 -1.778259 24.601789 -5.359049 0.405160 -9.451244 5.749532 -4.368942 43.085128 3.371500 -2.305800 15.310600 -95.622014 7.835226 15.420037 25.242949 -36.206627 -4.921915 2.273172 5.318057 -5.643892 -7.125000 0.000000 0.000000 85.895511 2.249290 12.373208 -27.508529 37.802544 -6.212642 -1.678013 -0.430243 -15.082030 7.125000 0.000000 0.000000 
27.289519 15.832586 10.907154 -11.852997 1.419664 -9.575257 -19.754948 -26.285287 -28.743610 9.495585 7.931559 34.073472 -3.005011 -18.660405 -33.946913 2.057000 -8.983700 -25.744500 47.999704 -13.129508 24.372331 -4.127936 -7.968931 19.731249 -1.103375 7.632678 -32.791103 -0.011400 0.690900 -1.898700 19.344260 -1.751180 24.572117 -5.299108 0.429530 -9.469412 5.830802 -4.305454 43.338940 3.442100 -2.282000 15.441500 -95.840847 8.042237 15.405930 24.879465 -35.743833 -4.777012 2.293945 5.313984 -5.657145 -7.125000 0.000000 0.000000 85.834202 2.030722 12.825768 -27.438455 37.687344 -6.186285 -1.730014 -0.424044 -15.888271 7.125000 0.000000 0.000000 
27.317342 15.813796 11.024409 -12.086839 1.076603 -9.605763 -19.674583 -26.088423 -28.049228 9.482903 7.922116 34.114955 -3.267977 -19.353574 -34.172284 1.131600 -6.756200 -18.995000 48.097661 -12.940981 24.292512 -4.207104 -8.307421 20.840581 -1.106053 7.630200 -32.802211 -0.034600 1.200700 -3.301200 19.448397 -1.723659 24.564271 -5.409456 0.447523 -9.353757 5.653396 -4.187201 43.446265 3.391600 -2.248300 15.535300 -96.033160 8.150641 15.194040 24.572468 -35.354828 -4.647667 2.265085 5.410356 -5.014973 -7.125000 0.000000 0.000000 85.892560 1.831092 13.534817 -27.499409 37.748137 -6.252451 -1.821822 -0.504289 -17.888464 7.125000 0.000000 0.000000 
27.343449 15.785792 11.150065 -12.081460 0.623150 -9.709340 -20.095699 -25.414222 -26.900929 9.546605 7.932689 34.105015 -3.840736 -20.042079 -33.200921 0.695700 -5.332000 -14.858000 48.055276 -12.519328 24.365997 -4.321567 -8.634126 21.978296 -1.054995 7.810942 -32.748667 -0.035500 1.215500 -3.341900 19.291464 -1.629865 24.686233 -5.401827 0.506907 -9.230090 5.432157 -4.047021 43.348644 3.314800 -2.204500 15.502300 -96.246359 8.203439 14.881242 24.172567 -34.858817 -4.497394 2.352674 5.470799 -4.426883 -7.125000 0.000000 0.000000 86.044512 1.654408 13.908689 -27.504606 37.751904 -6.281970 -1.878504 -0.587026 -18.909551 7.125000 0.000000 0.000000 
27.371905 15.763299 11.281593 -11.592517 0.234846 -10.000352 -21.243717 -24.789136 -25.149643 9.594232 7.995463 33.990226 -4.185842 -20.224392 -32.308028 0.473000 -4.410800 -12.235300 47.298022 -12.519577 24.811150 -4.407087 -8.919362 22.930491 -1.031305 7.952580 -32.836107 -0.054800 1.511000 -4.156100 18.877744 -1.447961 24.782319 -5.232764 0.602454 -9.347385 5.394346 -4.008042 43.368312 3.305400 -2.190800 15.480000 -96.490082 8.359211 14.662708 23.605384 -34.135121 -4.295443 2.514262 5.423086 -4.170662 -7.125000 0.000000 0.000000 86.148882 1.390477 13.641143 -27.228604 37.394967 -6.125359 -1.875414 -0.491186 -18.382603 7.125000 0.000000 0.000000 
27.407858 15.755349 11.407971 -11.327474 -0.064064 -10.142407 -21.898382 -24.445401 -24.097973 9.661170 8.092145 34.041221 -4.452363 -20.105414 -31.109570 0.292900 -3.480200 -9.618700 46.678880 -12.548121 25.031580 -4.489934 -9.177604 23.813930 -0.904948 8.371485 -32.687687 -0.055500 1.520700 -4.182700 18.499538 -1.317441 24.904871 -5.226664 0.652073 -9.340707 5.649776 -4.135923 43.424820 3.382200 -2.210600 15.543700 -96.760830 8.352456 14.341563 22.946769 -33.324023 -4.072245 2.663502 5.281771 -4.029550 -7.125000 0.000000 0.000000 86.263362 1.277643 13.265995 -26.919295 36.999810 -5.944602 -1.851814 -0.350063 -17.821723 7.125000 0.000000 0.000000 
27.442637 15.757608 11.532544 -11.572757 -0.376326 -10.201042 -21.757967 -23.964969 -23.853649 9.775682 8.187387 34.372656 -4.765133 -20.073551 -29.818485 0.142000 -2.428400 -6.691200 46.676271 -12.384269 25.106224 -4.565472 -9.400650 24.582708 -0.742678 8.712526 -32.186749 -0.050400 1.448500 -3.983800 18.439683 -1.274374 24.966610 -5.426884 0.649626 -9.166227 5.735258 -4.208587 43.464091 3.391300 -2.221600 15.612200 -96.953921 8.240843 14.122176 22.341343 -32.576648 -3.872302 2.795781 5.219745 -3.938445 -7.125000 0.000000 0.000000 86.449529 1.138945 13.072033 -26.808606 36.844809 -5.881241 -1.854397 -0.297910 -17.443478 7.125000 0.000000 0.000000 
27.469376 15.765377 11.660187 -11.650046 -0.674884 -10.283032 -21.778620 -23.387324 -23.706594 9.870878 8.301266 34.775936 -4.797570 -19.724604 -29.093902 0.158600 -2.566100 -7.072900 46.435830 -12.389345 25.397131 -4.617523 -9.596825 25.184818 -0.676840 8.650530 -31.708342 -0.111500 2.152600 -5.927500 18.563438 -1.230927 24.786443 -5.422664 0.662820 -9.173272 5.534477 -4.081172 43.673956 3.337900 -2.193100 15.657600 -97.181629 8.267128 13.685175 21.816528 -31.862122 -3.674574 2.748657 5.286769 -2.981613 -7.125000 0.000000 0.000000 86.545626 0.753392 13.068230 -26.755377 36.733745 -5.850657 -1.876842 -0.282677 -17.212255 7.125000 0.000000 0.000000 
27.493857 15.774229 11.793341 -11.414437 -0.849134 -10.384420 -22.189204 -22.911815 -23.447132 9.941585 8.419812 35.087536 -4.823464 -19.388344 -28.312356 0.194300 -2.838400 -7.829300 45.733597 -12.630065 25.666822 -4.677846 -9.827609 25.870432 -0.604550 8.593868 -31.217698 -0.223400 3.042500 -8.397200 18.514073 -1.209937 24.583062 -5.252889 0.665717 -9.282522 5.586265 -4.002156 43.886486 3.381200 -2.156300 15.656300 -97.426512 8.449563 12.989908 21.411177 -31.246848 -3.501060 2.539143 5.376062 -1.538379 -7.125000 0.000000 0.000000 86.631069 0.351287 13.094019 -26.652429 36.563862 -5.796858 -1.874415 -0.315443 -16.954073 7.125000 0.000000 0.000000 
27.520054 15.783444 11.922882 -11.212076 -0.887675 -10.704423 -22.729169 -22.209469 -22.868674 10.025295 8.503758 35.267815 -5.062483 -19.385309 -27.200084 0.175500 -2.698700 -7.440900 45.108776 -12.845432 25.890535 -4.767176 -10.142573 26.846357 -0.521433 8.549841 -30.649241 -0.278200 3.392800 -9.374200 18.297785 -1.207608 24.514424 -5.134752 0.646782 -9.484946 5.469707 -3.978097 44.213036 3.332200 -2.154900 15.747700 -97.600714 8.546052 12.663594 20.844488 -30.441009 -3.299338 2.490398 5.461465 -1.065716 -7.125000 0.000000 0.000000 86.829136 0.162762 12.822417 -26.386206 36.249806 -5.671344 -1.834230 -0.395657 -16.366260 7.125000 0.000000 0.000000 
27.542006 15.801420 12.041311 -10.856038 -0.873670 -11.041644 -23.558007 -21.240751 -21.969672 10.083954 8.543525 35.223565 -5.101090 -19.149499 -26.542723 0.328400 -3.683300 -10.187400 44.511390 -12.793657 25.962689 -4.925194 -10.531729 28.135774 -0.425273 8.508297 -29.993748 -0.271500 3.351700 -9.259500 18.058946 -1.168703 24.484497 -4.868254 0.678171 -9.743504 5.239392 -3.944061 44.523749 3.246100 -2.170000 15.859200 -97.867653 8.405191 12.300794 20.111808 -29.470478 -3.069819 2.578200 5.533025 -0.559053 -7.125000 0.000000 0.000000 87.061854 0.111025 12.326848 -25.760930 35.514261 -5.377146 -1.884459 -0.286169 -16.309591 7.125000 0.000000 0.000000 
27.560886 15.814971 12.161366 -10.527981 -0.897872 -11.302227 -24.424377 -20.008404 -20.961198 10.145979 8.532617 35.023289 -5.270687 -19.144282 -25.698033 0.456400 -4.333700 -12.017400 43.959621 -12.642679 25.739909 -5.143376 -10.995249 29.729025 -0.314043 8.491785 -29.263146 -0.272200 3.355900 -9.271200 17.900480 -1.161973 24.502952 -4.567543 0.721368 -9.854184 5.452152 -3.992839 44.568571 3.332500 -2.169000 15.874200 -98.175685 8.259822 11.638090 19.497703 -28.662713 -2.887251 2.633984 5.466848 0.703442 -7.125000 0.000000 0.000000 87.220200 -0.060922 12.085995 -25.502139 35.209310 -5.270441 -1.910511 -0.335782 -16.507372 7.125000 0.000000 0.000000 
27.580037 15.820481 12.285848 -10.046040 -0.848495 -11.596434 -25.448849 -18.832708 -19.833688 10.220887 8.516547 34.736596 -5.769151 -19.576268 -24.032820 0.193600 -2.833300 -7.815100 43.234747 -12.530926 25.374361 -5.415036 -11.530642 31.584365 -0.241553 8.260025 -28.408720 -0.327400 3.677400 -10.170700 17.459343 -1.221720 24.693575 -4.189069 0.731954 -9.968583 5.692719 -4.016525 44.684253 3.443300 -2.156600 15.978500 -98.474640 8.151169 10.821392 18.958941 -27.961391 -2.736977 2.712398 5.326205 1.857485 -7.125000 0.000000 0.000000 87.352697 -0.183710 11.863328 -25.157059 34.793508 -5.115859 -1.914044 -0.329243 -15.868204 7.125000 0.000000 0.000000 
27.602169 15.837193 12.409788 -9.109409 -0.661130 -11.928383 -26.890920 -17.983465 -18.454628 10.223260 8.519520 34.325024 -6.069008 -19.786782 -22.690213 0.028800 -1.094900 -3.009900 42.014152 -12.434051 25.010830 -5.739868 -12.086611 33.567583 -0.143257 8.016176 -27.323817 -0.269600 3.340300 -9.227500 16.589183 -1.277058 24.978847 -3.619326 0.741239 -10.212881 5.699357 -3.934184 44.726216 3.467400 -2.123200 15.977400 -98.720023 8.152165 10.231180 18.527482 -27.373186 -2.620009 2.845655 5.351352 2.440274 -7.125000 0.000000 0.000000 87.593768 -0.374829 11.295859 -24.769032 34.319413 -4.929109 -1.889713 -0.244130 -14.761841 7.125000 0.000000 0.000000 
27.630263 15.864203 12.534451 -8.295450 -0.414999 -12.222317 -28.211985 -17.017798 -17.092194 10.153529 8.483853 33.863606 -6.378596 -20.363896 -22.141181 0.049300 -1.433300 -3.942000 40.796515 -12.409169 24.528999 -6.086201 -12.646033 35.618005 -0.042319 7.804203 -26.192315 -0.123500 2.265900 -6.241100 15.725682 -1.374461 25.318008 -3.136757 0.722456 -10.282305 5.592002 -3.785043 44.556246 3.432900 -2.059500 15.840700 -98.871076 8.092844 9.931519 18.091613 -26.742690 -2.499586 2.923612 5.329438 3.024994 -7.125000 0.000000 0.000000 87.925865 -0.495270 10.536048 -24.394737 33.863497 -4.752953 -1.868522 -0.168719 -13.842087 7.125000 0.000000 0.000000 
27.660796 15.893382 12.654958 -7.659880 -0.260015 -12.378826 -29.258893 -15.994167 -16.037826 10.066544 8.446256 33.500609 -6.734139 -21.163574 -21.870639 0.145900 -2.461800 -6.783700 39.737843 -12.354371 23.699054 -6.483756 -13.222879 37.806338 0.044229 7.448556 -24.774802 -0.096200 2.000700 -5.507500 14.893596 -1.401937 25.680148 -2.773227 0.728119 -10.243866 5.561577 -3.787656 44.610870 3.406000 -2.053000 15.902700 -98.983449 7.829227 9.584922 17.666684 -26.155352 -2.380794 2.890196 5.212170 3.777107 -7.125000 0.000000 0.000000 88.240224 -0.363884 9.757513 -23.886565 33.265493 -4.534720 -1.881770 -0.108723 -13.103140 7.125000 0.000000 0.000000 
